HIERARCHY
ROOT Pelvis
{
	OFFSET 0.000000 0.000000 0.000000
	CHANNELS 6 Xposition Yposition Zposition Xrotation Yrotation Zrotation
	JOINT LeftUpLeg_virtual
	{
		OFFSET 0.000000 0.000000 0.000000
		CHANNELS 3 Xrotation Yrotation Zrotation
		JOINT LeftUpLeg
		{
			OFFSET 18.735201 -5.666702 -4.541200
			CHANNELS 3 Xrotation Yrotation Zrotation
			JOINT LeftLeg
			{
				OFFSET -0.021200 -31.938179 0.493100
				CHANNELS 3 Xrotation Yrotation Zrotation
				JOINT LeftFoot
				{
					OFFSET 0.021200 -31.938179 -4.336299
					CHANNELS 3 Xrotation Yrotation Zrotation
					JOINT LeftToeBase
					{
						OFFSET 0.943001 -26.722000 15.023500
						CHANNELS 3 Xrotation Yrotation Zrotation
						End Site
						{
							OFFSET 0 0 0
						}
					}
				}
			}
		}
	}
	JOINT RightUpLeg_virtual
	{
		OFFSET 0.000000 0.000000 0.000000
		CHANNELS 3 Xrotation Yrotation Zrotation
		JOINT RightUpLeg
		{
			OFFSET -18.735201 -5.666702 -4.541200
			CHANNELS 3 Xrotation Yrotation Zrotation
			JOINT RightLeg
			{
				OFFSET 0.018946 -31.938133 0.493100
				CHANNELS 3 Xrotation Yrotation Zrotation
				JOINT RightFoot
				{
					OFFSET -0.018946 -31.938126 -4.336299
					CHANNELS 3 Xrotation Yrotation Zrotation
					JOINT RightToeBase
					{
						OFFSET -0.943001 -26.722004 15.023500
						CHANNELS 3 Xrotation Yrotation Zrotation
						End Site
						{
							OFFSET 0 0 0
						}
					}
				}
			}
		}
	}
	JOINT Hips_virtual
	{
		OFFSET 0.000000 0.000000 0.000000
		CHANNELS 3 Xrotation Yrotation Zrotation
		JOINT Hips
		{
			OFFSET -0.000000 -0.000000 -0.000000
			CHANNELS 3 Xrotation Yrotation Zrotation
			JOINT Spine
			{
				OFFSET 0.000000 10.199997 -0.299500
				CHANNELS 3 Xrotation Yrotation Zrotation
				JOINT Spine1
				{
					OFFSET 0.000000 11.900002 -1.516600
					CHANNELS 3 Xrotation Yrotation Zrotation
					JOINT Spine2
					{
						OFFSET 0.000000 13.600006 -2.842500
						CHANNELS 3 Xrotation Yrotation Zrotation
						JOINT Neck_virtual
						{
							OFFSET 0.000000 0.000000 0.000000
							CHANNELS 3 Xrotation Yrotation Zrotation
							JOINT Neck
							{
								OFFSET 0.000000 9.624100 -2.890100
								CHANNELS 3 Xrotation Yrotation Zrotation
								JOINT Head
								{
									OFFSET 0.000000 14.068802 -1.351900
									CHANNELS 3 Xrotation Yrotation Zrotation
									End Site
									{
										OFFSET 0 0 0
									}
								}
							}
						}
						JOINT LeftShoulder_virtual
						{
							OFFSET 0.000000 0.000000 0.000000
							CHANNELS 3 Xrotation Yrotation Zrotation
							JOINT LeftShoulder
							{
								OFFSET 15.263000 10.923401 -0.547700
								CHANNELS 3 Xrotation Yrotation Zrotation
								JOINT LeftArm
								{
									OFFSET 25.438599 -2.830597 -13.032500
									CHANNELS 3 Xrotation Yrotation Zrotation
									JOINT LeftForeArm
									{
										OFFSET 29.960503 0.000000 0.000000
										CHANNELS 3 Xrotation Yrotation Zrotation
										JOINT LeftHand
										{
											OFFSET 27.849251 0.000000 0.000000
											CHANNELS 3 Xrotation Yrotation Zrotation
											End Site
											{
												OFFSET 0 0 0
											}
										}
									}
								}
							}
						}
						JOINT RightShoulder_virtual
						{
							OFFSET 0.000000 0.000000 0.000000
							CHANNELS 3 Xrotation Yrotation Zrotation
							JOINT RightShoulder
							{
								OFFSET -15.263000 10.923401 -0.547700
								CHANNELS 3 Xrotation Yrotation Zrotation
								JOINT RightArm
								{
									OFFSET -25.438599 -2.830597 -13.032500
									CHANNELS 3 Xrotation Yrotation Zrotation
									JOINT RightForeArm
									{
										OFFSET -29.960503 0.000000 0.000000
										CHANNELS 3 Xrotation Yrotation Zrotation
										JOINT RightHand
										{
											OFFSET -27.849251 0.000000 0.000000
											CHANNELS 3 Xrotation Yrotation Zrotation
											End Site
											{
												OFFSET 0 0 0
											}
										}
									}
								}
							}
						}
					}
				}
			}
		}
	}
}
MOTION
Frames: 7
Frame Time: 0.03333333
-5.359674 88.126305 7.736923 0.000000 0.000000 0.000000 4.731361 -20.389105 -2.206023 -44.570604 -2.421987 15.597843 38.100479 10.296595 -5.551827 6.278086 -7.515037 -3.477632 0.000000 0.000000 0.000000 4.401137 -19.497929 -2.031034 -17.602637 -12.009078 -8.129810 34.277420 -9.490135 1.378198 -16.559191 -0.231263 7.531798 0.000000 0.000000 0.000000 4.962228 -19.374214 -1.922824 -0.861415 0.040910 -0.065116 20.065573 3.311614 -4.688185 5.513881 5.255654 -0.633079 0.000000 0.000000 0.000000 -1.162778 4.200344 -0.295993 4.487976 4.757171 -1.247367 0.000000 0.000000 0.000000 2.089107 3.658675 1.016751 -1.103046 -28.398269 -5.638972 -30.090863 -24.994982 -53.576564 -13.471466 -42.402757 -23.192857 0.000000 0.000000 0.000000 -0.758960 4.637456 -0.752638 6.851729 21.611916 0.046600 -27.451314 31.522068 76.073698 -5.708878 58.814861 -11.610638 0.000000 0.000000 0.000000 
-5.251085 88.126617 8.052948 0.000000 0.000000 0.000000 4.885902 -19.859134 -2.177119 -44.783286 -2.592321 15.314000 38.272753 10.218053 -5.759114 6.231778 -7.768132 -3.749541 0.000000 0.000000 0.000000 4.574768 -18.955421 -1.990101 -16.650405 -12.202702 -7.946975 33.145638 -9.956731 1.139614 -16.324909 -0.395501 7.938003 0.000000 0.000000 0.000000 5.118091 -18.813029 -1.875661 -0.860058 0.035310 -0.065409 19.847732 3.482583 -4.876058 5.599487 5.232898 -0.990927 0.000000 0.000000 0.000000 -1.277255 4.191647 -0.575575 4.580917 4.810181 -1.206657 0.000000 0.000000 0.000000 1.992402 3.581976 0.656216 -1.690025 -29.556264 -6.516547 -29.672073 -25.529953 -52.653252 -13.336019 -41.531614 -21.928254 0.000000 0.000000 0.000000 -0.931998 4.623617 -1.034526 6.893289 21.193558 0.342148 -27.574582 32.327518 76.375421 -7.072051 58.180911 -10.882160 0.000000 0.000000 0.000000 
-5.154962 88.118607 8.359505 0.000000 0.000000 0.000000 5.030114 -19.383093 -2.107642 -44.988786 -2.774404 15.054247 38.511718 10.138726 -5.975462 6.208363 -8.013069 -4.082265 0.000000 0.000000 0.000000 4.734551 -18.465449 -1.906711 -15.839373 -12.327279 -7.825232 32.217507 -10.377774 0.906603 -16.187004 -0.585271 8.243319 0.000000 0.000000 0.000000 5.259938 -18.340221 -1.788965 -0.857321 0.027479 -0.065107 19.620091 3.642405 -5.034027 5.689659 5.243028 -1.351468 0.000000 0.000000 0.000000 -1.401909 4.221722 -0.844095 4.646803 4.813627 -1.139515 0.000000 0.000000 0.000000 1.881338 3.546604 0.306142 -2.256154 -30.698241 -7.339557 -29.089304 -26.077449 -51.719101 -13.116900 -40.705226 -20.643571 0.000000 0.000000 0.000000 -1.117067 4.649948 -1.313127 7.007224 20.999160 0.536325 -27.755237 32.707198 76.647092 -8.047201 57.621409 -10.376802 0.000000 0.000000 0.000000 
-5.061934 88.102707 8.650883 0.000000 0.000000 0.000000 5.175603 -18.965856 -2.004981 -45.199989 -2.981182 14.822079 38.829701 10.058588 -6.187908 6.146892 -8.250673 -4.464226 0.000000 0.000000 0.000000 4.895639 -18.036950 -1.791098 -15.148740 -12.393059 -7.748398 31.441840 -10.768123 0.678385 -16.206615 -0.815817 8.443517 0.000000 0.000000 0.000000 5.402484 -17.942413 -1.676566 -0.853004 0.022423 -0.065131 19.394471 3.780647 -5.171746 5.789268 5.282437 -1.698217 0.000000 0.000000 0.000000 -1.531432 4.285477 -1.089232 4.692672 4.780633 -1.053793 0.000000 0.000000 0.000000 1.760845 3.549467 -0.010067 -2.795432 -31.835102 -8.091169 -28.419116 -26.627588 -50.792374 -12.795816 -39.915649 -19.334567 0.000000 0.000000 0.000000 -1.311292 4.708875 -1.570378 7.189228 21.041004 0.595612 -27.972770 32.661756 76.901305 -8.707622 57.129273 -10.053459 0.000000 0.000000 0.000000 
-4.968968 88.082947 8.920471 0.000000 0.000000 0.000000 5.334477 -18.607901 -1.881552 -45.407436 -3.226756 14.608870 39.189870 9.969658 -6.374977 5.981471 -8.497522 -4.901125 0.000000 0.000000 0.000000 5.075002 -17.669675 -1.656328 -14.567694 -12.409409 -7.697820 30.776013 -11.110838 0.453001 -16.317885 -1.063482 8.594113 0.000000 0.000000 0.000000 5.555304 -17.597166 -1.555864 -0.849386 0.020556 -0.064590 19.183631 3.890906 -5.292127 5.900825 5.347678 -2.019893 0.000000 0.000000 0.000000 -1.655996 4.371591 -1.300537 4.721100 4.723276 -0.960640 0.000000 0.000000 0.000000 1.644822 3.578910 -0.278149 -3.301727 -32.967588 -8.746913 -27.759911 -27.180543 -49.925544 -12.367934 -39.117368 -17.995844 0.000000 0.000000 0.000000 -1.502683 4.788343 -1.793277 7.425089 21.308213 0.509724 -28.224420 32.265622 77.150675 -9.131215 56.701895 -9.851050 0.000000 0.000000 0.000000 
-4.876341 88.058449 9.175270 0.000000 0.000000 0.000000 5.512276 -18.305740 -1.750263 -45.590246 -3.492297 14.424967 39.561955 9.868618 -6.533252 5.697980 -8.751496 -5.389140 0.000000 0.000000 0.000000 5.271395 -17.361735 -1.515793 -14.096588 -12.395351 -7.668984 30.207591 -11.394957 0.247968 -16.444867 -1.309283 8.730886 0.000000 0.000000 0.000000 5.721478 -17.300087 -1.440155 -0.845869 0.022519 -0.063618 18.992594 3.963208 -5.395102 6.025096 5.423551 -2.306645 0.000000 0.000000 0.000000 -1.772210 4.463888 -1.469096 4.730878 4.652286 -0.868255 0.000000 0.000000 0.000000 1.545672 3.616297 -0.494258 -3.770471 -34.093528 -9.289611 -27.210200 -27.700322 -49.209669 -11.826732 -38.259038 -16.615263 0.000000 0.000000 0.000000 -1.684703 4.873453 -1.970350 7.698164 21.770384 0.297230 -28.489689 31.631016 77.373530 -9.421086 56.336814 -9.687261 0.000000 0.000000 0.000000 
-4.782577 88.030396 9.415070 0.000000 0.000000 0.000000 5.704422 -18.056266 -1.619887 -45.747139 -3.730752 14.289306 39.920697 9.765533 -6.674275 5.328003 -9.003894 -5.913129 0.000000 0.000000 0.000000 5.478222 -17.107529 -1.378038 -13.747358 -12.376241 -7.668721 29.752266 -11.629775 0.082372 -16.548160 -1.552756 8.836558 0.000000 0.000000 0.000000 5.904736 -17.055549 -1.330137 -0.842717 0.025106 -0.063530 18.827283 3.996448 -5.486451 6.156666 5.496778 -2.552121 0.000000 0.000000 0.000000 -1.873118 4.549288 -1.585569 4.718963 4.576885 -0.784894 0.000000 0.000000 0.000000 1.473946 3.647020 -0.657697 -4.189564 -35.195644 -9.699333 -26.854653 -28.152120 -48.725764 -11.207447 -37.332178 -15.212377 0.000000 0.000000 0.000000 -1.857627 4.949010 -2.095901 7.987847 22.373946 -0.005367 -28.718442 30.873609 77.483558 -9.677077 56.008927 -9.456207 0.000000 0.000000 0.000000 
